<svg width="194" height="19" viewBox="0 0 194 19" fill="none" xmlns="http://www.w3.org/2000/svg">
<path d="M3.91016 14.7109H17.0938V12.2969H8.16406C7.63281 12.2969 7.36719 11.9414 7.36719 11.2305V9.08594C7.36719 8.36719 7.63281 8.00781 8.16406 8.00781H18.6523C19.1836 8.00781 19.4492 8.36719 19.4492 9.08594C19.4492 10.0703 19.4609 11.543 19.4844 13.5039C19.5078 15.4648 19.5195 16.9375 19.5195 17.9219C19.5195 18.6406 19.2539 19 18.7227 19H1.32031C1.10938 19 0.910156 18.9141 0.722656 18.7422C0.542969 18.5703 0.453125 18.3789 0.453125 18.168V1.02344C0.453125 0.5 0.742188 0.238281 1.32031 0.238281L18.7227 0.261719C19.2539 0.261719 19.5195 0.617187 19.5195 1.32812C19.5195 2 19.5156 2.66797 19.5078 3.33203L19.4961 5.3125C19.4961 5.83594 19.2969 6.09766 18.8984 6.09766H17.7031C17.2969 6.09766 17.0938 5.83594 17.0938 5.3125V4.55078H3.91016V14.7109ZM27.3242 14.7812H38.7383L34.4141 4.17578C34.2266 3.91016 33.7266 3.77734 32.9141 3.77734C32.1094 3.77734 31.6133 3.91406 31.4258 4.1875L27.3242 14.7812ZM22.9766 19C22.6016 19 22.3594 18.8281 22.25 18.4844C22.1406 18.1406 22.168 17.7734 22.332 17.3828L28.9883 1.08203C29.1992 0.558594 29.5352 0.296875 29.9961 0.296875H34.8828C35.3359 0.296875 35.6719 0.558594 35.8906 1.08203L42.5234 17.3008C42.6797 17.6914 42.7188 18.0742 42.6406 18.4492C42.5625 18.8164 42.3359 19 41.9609 19H22.9766ZM45.6992 0.273438L62.4102 0.355469C62.9961 0.355469 63.4766 0.621094 63.8516 1.15234C64.7344 2.36328 66.0508 4.19531 67.8008 6.64844C68.1445 7.14062 68.3164 7.77734 68.3164 8.55859V18.0625C68.3164 18.6797 68.1172 18.9883 67.7188 18.9883H65.9727C65.5742 18.9883 65.375 18.6797 65.375 18.0625V9.05078L62.082 4.64453L56.1406 4.63281L57.5586 6.64844C57.9023 7.14062 58.0742 7.77734 58.0742 8.55859V18.0625C58.0742 18.6797 57.875 18.9883 57.4766 18.9883H55.7305C55.332 18.9883 55.1328 18.6797 55.1328 18.0625V9.05078L51.8398 4.64453L48.2891 4.63281V18.1914C48.2891 18.7227 48 18.9883 47.4219 18.9883H45.6992C45.1289 18.9883 44.8438 18.7227 44.8438 18.1914V1.05859C44.8438 0.535156 45.1289 0.273438 45.6992 0.273438ZM74.3984 8.05469H89.1875C89.7188 8.05469 89.9844 8.41016 89.9844 9.12109V11.2773C89.9844 11.9883 89.7188 12.3438 89.1875 12.3438H74.3984V13.4922H74.3867V14.7109H89.1875C89.7188 14.7109 89.9844 15.0664 89.9844 15.7773V17.9219C89.9844 18.6406 89.7188 19 89.1875 19H71.7852C71.2539 19 70.9883 18.6406 70.9883 17.9219V1.42188C70.9883 0.703125 71.2539 0.34375 71.7852 0.34375H89.1875C89.7188 0.34375 89.9844 0.703125 89.9844 1.42188V3.56641C89.9844 4.27734 89.7188 4.63281 89.1875 4.63281H74.3984V8.05469ZM124.156 0.226562C124.555 0.226562 124.754 0.488281 124.754 1.01172V11.875C124.754 12.5469 124.543 13.1367 124.121 13.6445L122.223 15.9414C121.637 16.6445 120.996 17.4023 120.301 18.2148C119.855 18.7383 119.258 19 118.508 19H105.184C104.605 19 104.316 18.7383 104.316 18.2148V1.07031C104.316 0.546875 104.605 0.285156 105.184 0.285156L124.156 0.226562ZM107.762 4.51562V14.7109H118.32L122.352 10.0352V4.51562H107.762ZM146.703 0.238281C147.219 0.238281 147.555 0.273438 147.711 0.34375C147.984 0.46875 148.121 0.753906 148.121 1.19922V18.0273C148.121 18.3086 147.992 18.543 147.734 18.7305C147.508 18.8945 147.246 18.9766 146.949 18.9766L128.539 19C127.969 19 127.684 18.7383 127.684 18.2148V0.988281C127.684 0.464844 127.969 0.203125 128.539 0.203125L146.703 0.238281ZM131.129 4.50391V14.6875H145.719V4.50391H131.129ZM154.906 14.7227H169.719C170.258 14.7227 170.527 15.0781 170.527 15.7891V17.9336C170.527 18.6445 170.258 19 169.719 19H152.316C152.113 19 151.918 18.9141 151.73 18.7422C151.551 18.5703 151.461 18.3828 151.461 18.1797V1.03516C151.461 0.511719 151.75 0.25 152.328 0.25L169.719 0.273438C170.258 0.273438 170.527 0.628906 170.527 1.33984C170.527 2.01172 170.523 2.67969 170.516 3.34375L170.504 5.32422C170.504 5.84766 170.305 6.10938 169.906 6.10938H168.699C168.301 6.10938 168.102 5.84766 168.102 5.32422V4.5625H154.906V14.7227ZM173.926 0.285156H175.648C176.227 0.285156 176.516 0.546875 176.516 1.07031V8.05469H182.34L190.215 1.07031C190.504 0.8125 190.863 0.609375 191.293 0.460938C191.379 0.4375 191.465 0.425781 191.551 0.425781C191.887 0.425781 192.215 0.648438 192.535 1.09375C192.934 1.64844 193.137 2.02734 193.145 2.23047C193.152 2.42578 192.977 2.68359 192.617 3.00391C191.125 4.31641 188.91 6.30469 185.973 8.96875C185.574 9.34375 185.375 9.70703 185.375 10.0586C185.375 10.4258 185.594 10.7891 186.031 11.1484L192.617 16.5508C192.938 16.8789 193.105 17.1484 193.121 17.3594C193.129 17.625 192.945 17.9648 192.57 18.3789C192.195 18.793 191.871 18.9883 191.598 18.9648C191.301 18.9492 191 18.8281 190.695 18.6016L182.34 12.3438H176.516V18.2148C176.516 18.7383 176.227 19 175.648 19H173.926C173.348 19 173.059 18.7383 173.059 18.2148V1.07031C173.059 0.546875 173.348 0.285156 173.926 0.285156Z" fill="#8B54CE"/>
</svg>
